<?xml version="1.0" standalone="no"?>
<!DOCTYPE svg PUBLIC "-//W3C//DTD SVG 20010904//EN"
 "http://www.w3.org/TR/2001/REC-SVG-20010904/DTD/svg10.dtd">
<svg version="1.0" xmlns="http://www.w3.org/2000/svg"
 width="127.000000pt" height="184.000000pt" viewBox="0 0 127.000000 184.000000"
 preserveAspectRatio="xMidYMid meet">
<metadata>
Created by potrace 1.10, written by Peter Selinger 2001-2011
</metadata>
<g transform="translate(0.000000,184.000000) scale(0.100000,-0.100000)"
fill="#c8a96a" stroke="none">
<path d="M403 1750 c-13 -5 -32 -24 -43 -42 -19 -32 -20 -50 -20 -483 0 -371
3 -455 14 -477 14 -27 14 -28 -12 -34 -89 -19 -131 -47 -168 -110 -66 -112 0
-258 122 -272 l44 -5 0 -124 c0 -112 2 -124 17 -121 15 3 17 17 15 124 l-2
122 43 28 42 29 225 1 c201 2 227 0 245 -16 11 -9 29 -22 40 -28 18 -10 20
-21 20 -134 0 -103 2 -123 15 -123 12 0 15 22 18 123 l3 122 28 0 c48 0 113
42 138 90 69 130 -27 284 -184 294 -20 1 -21 2 -5 20 15 16 17 64 20 480 2
447 2 462 -18 494 -11 18 -32 37 -46 42 -32 12 -521 12 -551 0z m554 -53 c18
-17 26 -37 27 -63 l1 -39 -309 -3 -309 -2 6 41 c3 22 15 52 27 64 27 29 43 30
323 29 l209 -1 25 -26z m28 -469 l-1 -323 -304 0 -305 0 0 323 0 322 305 0
306 0 -1 -322z m1 -373 c11 -26 -7 -86 -31 -111 l-24 -24 -249 0 c-249 0 -249
0 -275 24 -26 24 -44 83 -33 111 8 23 604 23 612 0z m79 -189 c54 -23 81 -51
101 -102 43 -112 -45 -221 -159 -200 -114 21 -116 196 -3 196 64 0 89 -81 30
-96 -31 -8 -32 -34 0 -34 27 0 66 42 66 71 0 32 -23 70 -51 85 -23 11 -94 14
-371 14 -322 0 -345 -1 -375 -20 -66 -40 -48 -149 25 -150 30 0 28 26 -2 34
-59 15 -34 96 30 96 80 0 115 -101 55 -160 -109 -110 -286 33 -215 173 33 64
73 93 147 106 23 3 186 6 362 6 281 -1 325 -3 360 -19z m-166 -143 c-13 -26
-17 -48 -13 -70 l6 -33 -209 0 -210 0 0 44 c0 25 -7 56 -17 70 l-16 26 239 0
239 0 -19 -37z"/>
<path d="M615 1661 c-3 -2 -5 -11 -5 -18 0 -11 16 -13 73 -11 56 2 72 6 72 18
0 12 -14 15 -68 16 -37 0 -70 -2 -72 -5z"/>
<path d="M637 803 c-14 -14 14 -29 48 -25 50 6 47 32 -3 32 -21 0 -42 -3 -45
-7z"/>
<path d="M484 287 c-3 -8 -3 -56 -2 -108 3 -80 6 -94 21 -97 15 -3 17 7 17
107 0 93 -2 111 -15 111 -9 0 -18 -6 -21 -13z"/>
<path d="M662 193 c3 -93 5 -108 21 -111 15 -3 17 7 17 107 0 105 -1 111 -20
111 -20 0 -21 -5 -18 -107z"/>
<path d="M840 190 c0 -101 2 -111 18 -108 15 3 17 16 17 108 0 92 -2 105 -17
108 -16 3 -18 -7 -18 -108z"/>
</g>
</svg>
