 <svg  version="1.0" xmlns="http://www.w3.org/2000/svg"  width="140.000000pt" height="149.000000pt" viewBox="0 0 140.000000 149.000000"  preserveAspectRatio="xMidYMid meet">  <g transform="translate(0.000000,149.000000) scale(0.100000,-0.100000)" fill="#c8a96a" stroke="none"> <path d="M105 1408 c-39 -21 -55 -51 -55 -103 0 -67 41 -115 97 -115 16 0 18 -6 15 -40 -3 -33 1 -44 26 -70 17 -16 38 -30 47 -30 14 0 16 -43 12 -495 -2 -272 0 -500 4 -506 4 -7 14 -9 23 -6 14 6 16 57 16 507 l0 500 405 0 405 0 0 -500 c0 -442 2 -501 15 -507 9 -3 18 -3 21 0 3 3 5 231 5 506 -1 450 1 501 15 501 8 0 29 13 45 29 22 23 29 39 29 69 0 36 3 40 30 46 41 8 77 46 85 89 9 45 -19 106 -55 124 -34 17 -1155 18 -1185 1z m1164 -38 c29 -15 45 -64 30 -92 -26 -49 -11 -47 -600 -48 -548 0 -557 0 -583 21 -19 15 -26 30 -26 54 0 24 7 39 26 54 26 21 35 21 581 21 336 0 561 -4 572 -10z m-81 -204 c9 -20 7 -29 -9 -50 l-20 -26 -461 0 c-415 0 -463 2 -480 17 -21 18 -24 53 -6 71 9 9 131 12 488 12 l477 0 11 -24z"/> <path d="M450 904 c0 -38 3 -45 18 -42 12 2 18 15 20 46 3 37 1 42 -17 42 -18 0 -21 -6 -21 -46z"/> <path d="M680 905 c0 -39 3 -46 18 -43 13 2 17 13 17 43 0 30 -4 41 -17 43 -15 3 -18 -4 -18 -43z"/> <path d="M910 905 c0 -39 3 -46 18 -43 13 2 17 13 17 43 0 30 -4 41 -17 43 -15 3 -18 -4 -18 -43z"/> <path d="M722 683 c-102 -339 -103 -346 -80 -351 13 -2 22 15 43 85 14 48 38 126 52 173 28 93 34 151 16 157 -6 2 -19 -24 -31 -64z"/> <path d="M475 620 l-80 -80 80 -80 c44 -44 84 -79 89 -77 25 8 13 32 -45 92 l-62 65 62 70 c54 61 68 90 43 90 -4 0 -43 -36 -87 -80z"/> <path d="M824 685 c-5 -12 12 -35 57 -81 l63 -64 -63 -64 c-43 -44 -62 -69 -58 -80 4 -9 11 -16 16 -16 5 0 41 36 81 80 l73 80 -70 77 c-75 83 -90 93 -99 68z"/> <path d="M457 224 c-4 -4 -7 -47 -7 -96 0 -80 2 -89 18 -86 15 3 17 15 17 92 0 83 -8 109 -28 90z"/> <path d="M687 224 c-4 -4 -7 -47 -7 -96 0 -80 2 -89 18 -86 15 3 17 15 17 92 0 83 -8 109 -28 90z"/> <path d="M910 145 c0 -47 -1 -88 -2 -92 -2 -5 7 -9 20 -11 21 -3 22 -1 22 76 0 89 -5 112 -26 112 -11 0 -14 -19 -14 -85z"/> </g> </svg> 